<svg width="198" height="81" viewBox="0 0 198 81" fill="none" xmlns="http://www.w3.org/2000/svg">
<g clip-path="url(#clip0_49_4645)">
<path d="M71.2237 48.1627C68.8099 45.0901 67.66 41.2335 68.3045 37.4276C68.5572 35.9735 68.6962 34.4814 68.7215 32.9514C69.088 15.1481 53.9991 0.392122 35.018 0.000146002C16.0369 -0.39183 0.36674 13.7446 0.000260518 31.5479C-0.290396 45.5958 9.03588 57.7345 22.305 62.4382C27.6884 64.3475 32.2378 67.8626 35.6499 72.3387C39.5548 77.4597 45.886 80.8484 53.1019 81.0001C65.2462 81.253 75.2676 72.2123 75.5077 60.8197C75.6088 56.0907 74.0038 51.7031 71.2237 48.1753V48.1627Z" fill="#FFDA00"/>
<path d="M20.5984 46.443C23.9067 46.443 26.5885 41.4669 26.5885 35.3285C26.5885 29.1902 23.9067 24.2141 20.5984 24.2141C17.2902 24.2141 14.6084 29.1902 14.6084 35.3285C14.6084 41.4669 17.2902 46.443 20.5984 46.443Z" fill="white"/>
<path d="M20.6112 47.0751C16.8958 47.0751 13.9893 41.9162 13.9893 35.3284C13.9893 28.7407 16.8958 23.5818 20.6112 23.5818C24.3265 23.5818 27.2331 28.7407 27.2331 35.3284C27.2331 41.9162 24.3265 47.0751 20.6112 47.0751ZM20.6112 24.8462C17.7046 24.8462 15.253 29.6511 15.253 35.3284C15.253 41.0058 17.7046 45.8106 20.6112 45.8106C23.5177 45.8106 25.9693 41.0058 25.9693 35.3284C25.9693 29.6511 23.5177 24.8462 20.6112 24.8462Z" fill="#050505"/>
<path d="M23.3027 43.5219C25.1243 43.5219 26.601 39.8252 26.601 35.2651C26.601 30.705 25.1243 27.0083 23.3027 27.0083C21.4811 27.0083 20.0044 30.705 20.0044 35.2651C20.0044 39.8252 21.4811 43.5219 23.3027 43.5219Z" fill="black"/>
<path d="M32.5784 46.443C35.8866 46.443 38.5685 41.4669 38.5685 35.3285C38.5685 29.1902 35.8866 24.2141 32.5784 24.2141C29.2702 24.2141 26.5884 29.1902 26.5884 35.3285C26.5884 41.4669 29.2702 46.443 32.5784 46.443Z" fill="white"/>
<path d="M32.5784 47.0751C28.8631 47.0751 25.9565 41.9162 25.9565 35.3284C25.9565 28.7407 28.8631 23.5818 32.5784 23.5818C36.2938 23.5818 39.2004 28.7407 39.2004 35.3284C39.2004 41.9162 36.2938 47.0751 32.5784 47.0751ZM32.5784 24.8462C29.6719 24.8462 27.2203 29.6511 27.2203 35.3284C27.2203 41.0058 29.6719 45.8106 32.5784 45.8106C35.485 45.8106 37.9366 41.0058 37.9366 35.3284C37.9366 29.6511 35.485 24.8462 32.5784 24.8462Z" fill="#050505"/>
<path d="M35.2705 43.5219C37.0921 43.5219 38.5688 39.8252 38.5688 35.2651C38.5688 30.705 37.0921 27.0083 35.2705 27.0083C33.4489 27.0083 31.9722 30.705 31.9722 35.2651C31.9722 39.8252 33.4489 43.5219 35.2705 43.5219Z" fill="black"/>
<path d="M36.8121 50.7673C36.6099 50.7673 36.4077 50.6661 36.2813 50.4764C36.0918 50.1856 36.1802 49.7936 36.4709 49.604C37.722 48.7947 39.4533 47.5303 40.5274 46.1521C41.2983 45.1658 41.589 44.3313 41.3362 43.7749C41.1846 43.4588 41.3362 43.0795 41.6395 42.9404C41.9554 42.7887 42.3346 42.9404 42.4736 43.2439C42.8021 43.9519 42.9032 45.1658 41.5131 46.936C40.3252 48.4407 38.4802 49.7936 37.1533 50.6661C37.0522 50.7293 36.9258 50.7673 36.8121 50.7673Z" fill="#050505"/>
<path d="M42.8021 54.1052C42.3977 54.1052 42.006 54.0547 41.6269 53.9535C39.7439 53.4351 38.2401 51.6522 37.7852 49.4142L39.0236 49.1613C39.3901 50.9441 40.5401 52.335 41.9681 52.7396C42.8527 52.9799 43.8257 52.8282 44.6598 52.3224C45.4433 51.8419 45.9741 51.1338 46.1257 50.3625C46.3026 49.49 46.012 48.4026 45.3549 47.4416C44.862 46.7209 43.7247 45.4565 41.6901 45.1151L41.9049 43.8633C43.7499 44.1794 45.3422 45.1909 46.3911 46.7209C47.2504 47.9727 47.6043 49.4015 47.3515 50.6154C47.1241 51.7281 46.3785 52.7396 45.3043 53.3972C44.5334 53.8776 43.6615 54.1179 42.7895 54.1179L42.8021 54.1052Z" fill="#050505"/>
<path d="M43.4845 50.4636C43.3329 50.4636 43.1939 50.413 43.0675 50.3119L40.1989 47.8083C39.9335 47.5807 39.9082 47.1761 40.1357 46.9105C40.3631 46.645 40.7675 46.6197 41.0329 46.8473L43.9016 49.3509C44.1669 49.5785 44.1922 49.9831 43.9648 50.2487C43.8384 50.3877 43.6615 50.4636 43.4845 50.4636Z" fill="#050505"/>
<path d="M48.5015 70.897L52.8613 43.4334C53.6701 38.2998 58.0931 34.5317 63.287 34.5317H64.6392C70.4271 34.5317 74.5973 35.4801 77.1627 37.3894C79.728 39.2987 81.017 42.3839 81.017 46.6451C81.017 52.0442 79.4879 56.1789 76.4424 59.0745C73.3968 61.9701 69.037 63.4115 63.3628 63.4115C63.1859 63.4115 62.9079 63.4115 62.5541 63.3863C62.2002 63.361 61.9222 63.361 61.7453 63.361L60.2794 72.7431C59.8244 75.6513 57.3223 77.7882 54.3904 77.7882C50.7256 77.7882 47.9328 74.5133 48.5015 70.8844V70.897ZM64.8161 44.1035L63.2997 53.6754C63.4513 53.7133 63.6282 53.7386 63.8051 53.7512C63.9821 53.7639 64.1969 53.7639 64.4623 53.7639C66.1809 53.7639 67.4699 53.2454 68.3293 52.2212C69.1886 51.1971 69.6183 49.6418 69.6183 47.5681C69.6183 46.4175 69.2644 45.5577 68.5567 44.976C67.8491 44.3944 66.8128 44.1035 65.448 44.1035H64.8288H64.8161Z" fill="#FF6C3E"/>
<path d="M54.3778 78.749C52.3558 78.749 50.435 77.8639 49.1207 76.3213C47.8064 74.7787 47.2378 72.7556 47.5537 70.7451L51.9135 43.2815C52.8108 37.6547 57.5876 33.5833 63.2744 33.5833H64.6266C70.6798 33.5833 74.9638 34.5822 77.7187 36.6306C80.5242 38.7169 81.9522 42.0929 81.9522 46.6576C81.9522 52.297 80.3094 56.7099 77.0742 59.7824C73.8518 62.8424 69.2392 64.385 63.3502 64.385C63.1733 64.385 62.8953 64.385 62.5288 64.3597L61.1893 72.92C60.6585 76.3087 57.7898 78.7617 54.3652 78.7617L54.3778 78.749ZM63.2744 35.4799C58.5228 35.4799 54.5294 38.8939 53.7838 43.585L49.424 71.0486C49.1965 72.5027 49.6136 73.9695 50.5614 75.0948C51.5091 76.2075 52.8992 76.8524 54.3778 76.8524C56.8673 76.8524 58.9525 75.0695 59.3316 72.6165L60.9239 62.4251H61.7327C61.9222 62.4251 62.2129 62.4251 62.592 62.4504C62.9332 62.4631 63.1859 62.4757 63.3502 62.4757C68.7337 62.4757 72.9166 61.0975 75.7726 58.3916C78.616 55.6983 80.0566 51.7406 80.0566 46.6449C80.0566 42.6619 78.9193 39.8802 76.594 38.1479C74.2056 36.3777 70.187 35.4799 64.6266 35.4799H63.2744ZM64.4497 54.712C64.1716 54.712 63.9315 54.712 63.742 54.6994C63.5019 54.6867 63.2744 54.6488 63.0596 54.5982L62.2129 54.3833L63.9821 43.1551H65.4101C66.9897 43.1551 68.2408 43.5217 69.1254 44.2425C70.0606 45.0138 70.5408 46.1265 70.5408 47.568C70.5408 49.8566 70.0353 51.6268 69.037 52.828C67.9881 54.0798 66.4463 54.712 64.4497 54.712ZM64.3865 52.8154C65.8145 52.7901 66.9013 52.436 67.5837 51.6142C68.2914 50.767 68.6452 49.4014 68.6452 47.568C68.6452 46.7081 68.4051 46.1012 67.9249 45.7092C67.4194 45.292 66.6359 45.077 65.5996 45.0517L64.3738 52.8154H64.3865Z" fill="black"/>
<path d="M81.0801 70.897L85.4399 43.4334C86.2487 38.2998 90.6717 34.5317 95.8656 34.5317H97.0409C103.435 34.5317 107.846 35.3663 110.259 37.048C112.673 38.7297 113.886 41.5873 113.886 45.6462C113.886 49.1866 113.115 52.0822 111.586 54.3582C110.398 56.1284 108.794 57.4181 106.797 58.2526C105.786 58.6699 105.217 59.7447 105.52 60.7942L108.225 70.3786C109.274 74.0961 106.481 77.7882 102.614 77.7882C99.6821 77.7882 97.1799 75.6513 96.725 72.7431L95.297 63.5633C95.2085 62.9816 94.3744 62.9816 94.286 63.5633L92.858 72.7431C92.403 75.6513 89.9009 77.7882 86.969 77.7882C83.3042 77.7882 80.5114 74.5133 81.0801 70.8844V70.897ZM95.8909 53.8271H96.548C98.3804 53.8271 99.7958 53.2454 100.782 52.0948C101.767 50.9442 102.26 49.2751 102.26 47.1003C102.26 45.8611 101.944 44.9381 101.312 44.3438C100.68 43.7495 99.7073 43.4587 98.3804 43.4587C98.3046 43.4587 98.1656 43.4587 97.976 43.484C97.7865 43.5093 97.6348 43.5093 97.5211 43.5093L95.8909 53.8271Z" fill="#FF6C3E"/>
<path d="M102.614 78.7493C99.1893 78.7493 96.3207 76.2963 95.7899 72.9076L94.7915 66.4716L93.7932 72.9076C93.2624 76.2963 90.3938 78.7493 86.9691 78.7493C84.9471 78.7493 83.0263 77.8642 81.712 76.3216C80.3978 74.7789 79.8291 72.7432 80.145 70.7454L84.5049 43.2817C85.4021 37.655 90.179 33.5835 95.8657 33.5835H97.041C103.701 33.5835 108.2 34.4686 110.803 36.2768C113.482 38.1355 114.834 41.2839 114.834 45.6462C114.834 49.3637 114.013 52.4742 112.383 54.8893C111.094 56.7986 109.337 58.2274 107.163 59.1378C106.582 59.3781 106.266 59.9724 106.43 60.554L109.135 70.1385C109.716 72.1995 109.312 74.3617 108.01 76.0687C106.721 77.7757 104.75 78.7493 102.614 78.7493ZM94.7915 62.1978C95.5119 62.1978 96.1311 62.7162 96.2322 63.4369L97.6602 72.6168C98.0393 75.0698 100.124 76.8526 102.614 76.8526C104.156 76.8526 105.571 76.1445 106.506 74.918C107.441 73.6915 107.732 72.1363 107.315 70.6442L104.611 61.0598C104.194 59.5677 104.977 57.9872 106.443 57.3803C108.263 56.6216 109.729 55.4204 110.816 53.8272C112.231 51.7282 112.951 48.9717 112.951 45.6462C112.951 41.8909 111.902 39.3367 109.729 37.832C107.479 36.2768 103.221 35.4802 97.041 35.4802H95.8657C91.1141 35.4802 87.1207 38.8941 86.3752 43.5852L82.0153 71.0488C81.7878 72.5029 82.2049 73.9697 83.1527 75.0951C84.1005 76.2078 85.4905 76.8526 86.9691 76.8526C89.4586 76.8526 91.5438 75.0698 91.9229 72.6168L93.3509 63.4369C93.4646 62.7162 94.0712 62.1978 94.7915 62.1978ZM96.5355 54.7755H94.7789L96.7124 42.561H97.5212C97.6096 42.561 97.736 42.561 97.8877 42.5357C98.1151 42.5104 98.2921 42.4978 98.3805 42.4978C99.9475 42.4978 101.148 42.8771 101.957 43.6484C102.791 44.4197 103.208 45.583 103.208 47.1004C103.208 49.4901 102.627 51.3868 101.502 52.7145C100.327 54.0801 98.6585 54.7755 96.5481 54.7755H96.5355ZM98.33 44.4071L96.9904 52.8662C98.3173 52.7777 99.3157 52.3225 100.049 51.4753C100.883 50.5017 101.3 49.0349 101.3 47.1004C101.3 46.1394 101.085 45.4439 100.655 45.0393C100.213 44.6221 99.442 44.4071 98.3679 44.4071C98.3679 44.4071 98.3426 44.4071 98.33 44.4071Z" fill="black"/>
<path d="M113.937 69.4935L118.069 43.4461C118.878 38.3125 123.301 34.5444 128.495 34.5444H136.431C138.781 34.5444 140.576 36.6434 140.209 38.97L139.755 41.815C139.464 43.6737 137.859 45.0393 135.976 45.0393H131.073C130.403 45.0393 129.834 45.5198 129.721 46.1773L129.253 48.9464C129.114 49.7809 129.758 50.5396 130.605 50.5396H132.968C135.306 50.5396 137.101 52.6259 136.747 54.9525L136.355 57.4434C136.064 59.3022 134.46 60.6804 132.577 60.6804H128.571C127.901 60.6804 127.332 61.1609 127.218 61.831L126.688 65.0427C126.549 65.8772 127.193 66.6359 128.04 66.6359H131.313C133.663 66.6359 135.458 68.7349 135.091 71.0615L134.535 74.5892C134.245 76.448 132.64 77.8136 130.757 77.8136H121.014C116.603 77.8136 113.229 73.8685 113.924 69.4935H113.937Z" fill="#FF6C3E"/>
<path d="M130.77 78.7493H121.026C118.638 78.7493 116.388 77.7124 114.847 75.8916C113.305 74.0835 112.623 71.6937 113.002 69.3292L117.134 43.2817C118.031 37.655 122.808 33.5835 128.495 33.5835H136.418C137.821 33.5835 139.135 34.1904 140.045 35.2526C140.955 36.3147 141.347 37.7182 141.132 39.0965L140.677 41.9414C140.311 44.268 138.327 45.9624 135.963 45.9624H131.06C130.858 45.9624 130.681 46.1141 130.643 46.3164L130.176 49.0855C130.15 49.2499 130.226 49.3763 130.264 49.4269C130.302 49.4775 130.416 49.5787 130.58 49.5787H132.943C134.333 49.5787 135.66 50.1856 136.57 51.2477C137.48 52.3098 137.872 53.7007 137.657 55.079L137.265 57.5699C136.899 59.9091 134.927 61.6161 132.551 61.6161H128.545C128.343 61.6161 128.166 61.7679 128.128 61.9702L127.598 65.1818C127.572 65.3462 127.648 65.4727 127.686 65.5232C127.724 65.5738 127.838 65.675 128.002 65.675H131.275C132.678 65.675 133.992 66.2819 134.902 67.344C135.812 68.4062 136.204 69.8097 135.989 71.1879L135.433 74.7157C135.066 77.0423 133.082 78.7366 130.719 78.7366L130.77 78.7493ZM128.495 35.4802C123.743 35.4802 119.75 38.8941 119.004 43.5852L114.872 69.6327C114.581 71.4408 115.099 73.2743 116.287 74.6651C117.475 76.056 119.207 76.8526 121.026 76.8526H130.77C132.185 76.8526 133.386 75.8284 133.613 74.4249L134.169 70.8971C134.295 70.0626 134.068 69.2154 133.512 68.5832C132.956 67.951 132.172 67.5716 131.326 67.5716H128.053C127.37 67.5716 126.726 67.2682 126.283 66.7498C125.841 66.2313 125.652 65.5485 125.765 64.8784L126.296 61.6667C126.486 60.5414 127.446 59.7195 128.583 59.7195H132.589C134.017 59.7195 135.205 58.6953 135.433 57.2917L135.824 54.8008C135.951 53.9663 135.711 53.1317 135.167 52.4869C134.624 51.842 133.828 51.488 132.981 51.488H130.618C129.936 51.488 129.291 51.1845 128.849 50.6661C128.406 50.1477 128.217 49.4649 128.331 48.7821L128.798 46.0129C128.988 44.8876 129.948 44.0783 131.086 44.0783H135.989C137.404 44.0783 138.605 43.0541 138.832 41.6506L139.287 38.8056C139.413 37.9711 139.186 37.1239 138.63 36.4917C138.087 35.8468 137.29 35.4802 136.444 35.4802H128.52H128.495Z" fill="black"/>
<path d="M137.025 71.0994L148.197 41.3851C149.738 37.263 153.681 34.5444 158.079 34.5444C161.984 34.5444 165.232 37.5664 165.51 41.4736L167.696 72.5156C167.898 75.3858 165.623 77.8262 162.755 77.8262H160.872C158.117 77.8262 155.893 75.5755 155.918 72.819C155.918 72.0604 155.311 71.4534 154.566 71.4534H149.802C149.208 71.4534 148.677 71.8454 148.5 72.427L147.944 74.2858C147.325 76.3847 145.391 77.8262 143.192 77.8262H141.663C138.201 77.8262 135.812 74.3616 137.025 71.1247V71.0994ZM152.974 62.6909H154.958C155.627 62.6909 156.171 62.1598 156.171 61.4896L156.272 50.0212C156.272 49.4522 155.476 49.3257 155.299 49.8694L151.811 61.1103C151.571 61.8943 152.152 62.6782 152.974 62.6782V62.6909Z" fill="#FF6C3E"/>
<path d="M162.755 78.7493H160.872C159.279 78.7493 157.801 78.1298 156.676 77.0044C155.564 75.8791 154.957 74.3744 154.97 72.7938C154.97 72.6421 154.894 72.5536 154.856 72.503C154.806 72.4524 154.717 72.3766 154.566 72.3766H149.801C149.625 72.3766 149.46 72.4904 149.41 72.6674L148.854 74.5261C148.121 77.017 145.783 78.7493 143.192 78.7493H141.663C139.73 78.7493 137.91 77.801 136.81 76.2078C135.711 74.6146 135.458 72.5789 136.141 70.7707L147.312 41.0564C148.993 36.5929 153.315 33.5962 158.079 33.5962C162.464 33.5962 166.141 37.0228 166.445 41.3978L168.631 72.4271C168.745 74.0583 168.176 75.6767 167.064 76.8653C165.952 78.0539 164.372 78.7493 162.742 78.7493H162.755ZM149.801 70.4799H154.566C155.185 70.4799 155.766 70.7201 156.196 71.1627C156.638 71.6052 156.866 72.1869 156.866 72.8065C156.866 73.8812 157.27 74.9054 158.028 75.6641C158.786 76.4228 159.797 76.8527 160.872 76.8527H162.755C163.879 76.8527 164.916 76.3975 165.686 75.5756C166.457 74.7537 166.836 73.6789 166.748 72.5662L164.562 41.5369C164.322 38.1482 161.478 35.4929 158.079 35.4929C154.098 35.4929 150.484 37.9964 149.081 41.7265L137.91 71.4409C137.442 72.6927 137.606 74.033 138.365 75.133C139.123 76.2331 140.324 76.8653 141.663 76.8653H143.192C144.949 76.8653 146.528 75.6894 147.034 73.995L147.59 72.1363C147.881 71.1627 148.79 70.4925 149.801 70.4925V70.4799ZM154.97 63.6393H152.986C152.291 63.6393 151.659 63.3232 151.242 62.7542C150.825 62.1978 150.711 61.4897 150.926 60.8322L154.414 49.5914C154.629 48.9086 155.299 48.4786 156.019 48.5924C156.727 48.7062 157.245 49.3132 157.245 50.0339L157.144 61.5024C157.144 62.6783 156.158 63.6393 154.983 63.6393H154.97ZM155.311 53.1065L152.733 61.4012C152.695 61.515 152.733 61.6035 152.771 61.6415C152.796 61.6794 152.872 61.7553 152.986 61.7553H154.97C155.109 61.7553 155.235 61.6415 155.235 61.4897L155.311 53.1065Z" fill="black"/>
<path d="M178.223 77.8009C174.532 77.8009 171.727 74.5007 172.296 70.8591L176.137 46.506C176.226 45.9749 175.809 45.4944 175.265 45.4944H171.184C170.084 45.4944 169.25 44.5082 169.427 43.4334C170.248 38.3124 174.659 34.5317 179.853 34.5317H195.27C196.37 34.5317 197.204 35.518 197.027 36.5928L196.42 40.4367C195.953 43.3449 193.45 45.4944 190.493 45.4944H189.192C188.762 45.4944 188.396 45.8105 188.32 46.2405L184.137 72.7305C183.682 75.6513 181.167 77.8009 178.21 77.8009H178.223Z" fill="#FF6C3E"/>
<path d="M178.222 78.7492C176.188 78.7492 174.267 77.8641 172.94 76.3089C171.613 74.7662 171.044 72.7179 171.36 70.7074L175.202 46.3543L171.196 46.4302C170.4 46.4302 169.642 46.0761 169.111 45.4692C168.593 44.8622 168.365 44.053 168.492 43.2691C169.389 37.6549 174.166 33.5708 179.853 33.5708H195.27C196.066 33.5708 196.824 33.9248 197.343 34.5318C197.861 35.1387 198.088 35.9479 197.962 36.7319L197.355 40.5758C196.812 43.9645 193.93 46.4302 190.493 46.4302H189.192L185.084 72.8696C184.554 76.2709 181.66 78.7366 178.222 78.7366V78.7492ZM179.853 35.4801C175.101 35.4801 171.108 38.8815 170.362 43.5852C170.311 43.9139 170.463 44.1542 170.552 44.2553C170.64 44.3565 170.855 44.5461 171.183 44.5461H175.265C175.796 44.5461 176.302 44.7737 176.655 45.191C177.009 45.6083 177.148 46.1393 177.072 46.6578L173.231 71.0109C173.003 72.4776 173.42 73.957 174.381 75.0824C175.341 76.2077 176.744 76.8526 178.222 76.8526C180.725 76.8526 182.822 75.0571 183.214 72.5914L187.397 46.0888C187.536 45.191 188.294 44.5461 189.204 44.5461H190.506C193.008 44.5461 195.093 42.7506 195.497 40.285L196.104 36.4411C196.155 36.1123 196.003 35.8721 195.915 35.7709C195.826 35.6571 195.611 35.4801 195.283 35.4801H179.865H179.853Z" fill="black"/>
</g>
<defs>
<clipPath id="clip0_49_4645">
<rect width="198" height="81" fill="white"/>
</clipPath>
</defs>
</svg>
