<svg width="45" height="45" viewBox="0 0 45 45" fill="none" xmlns="http://www.w3.org/2000/svg">
<g filter="url(#filter0_d_227_10538)">
<circle cx="22.5" cy="18.5" r="18" fill="#FF6C3E" stroke="white"/>
<path d="M22.4807 9.49883C22.6729 9.03685 23.3273 9.03685 23.5195 9.49883L25.6454 14.6103C25.7264 14.805 25.9096 14.9381 26.1199 14.955L31.6381 15.3974C32.1369 15.4373 32.3391 16.0598 31.9591 16.3853L27.7548 19.9867C27.5946 20.1239 27.5246 20.3392 27.5736 20.5444L28.858 25.9293C28.9741 26.416 28.4447 26.8007 28.0177 26.5398L23.2933 23.6542C23.1133 23.5443 22.8869 23.5443 22.7069 23.6542L17.9825 26.5398C17.5555 26.8007 17.0261 26.416 17.1422 25.9293L18.4266 20.5444C18.4756 20.3392 18.4056 20.1239 18.2454 19.9867L14.0411 16.3853C13.6611 16.0598 13.8634 15.4373 14.3621 15.3974L19.8803 14.955C20.0906 14.9381 20.2738 14.805 20.3548 14.6103L22.4807 9.49883Z" stroke="white" strokeWidth="2.5" strokeLinecap="round" strokeLinejoin="round"/>
</g>
<defs>
<filter id="filter0_d_227_10538" x="0" y="0" width="45" height="45" filterUnits="userSpaceOnUse" color-interpolation-filters="sRGB">
<feFlood flood-opacity="0" result="BackgroundImageFix"/>
<feColorMatrix in="SourceAlpha" type="matrix" values="0 0 0 0 0 0 0 0 0 0 0 0 0 0 0 0 0 0 127 0" result="hardAlpha"/>
<feOffset dy="4"/>
<feGaussianBlur stdDeviation="2"/>
<feComposite in2="hardAlpha" operator="out"/>
<feColorMatrix type="matrix" values="0 0 0 0 0 0 0 0 0 0 0 0 0 0 0 0 0 0 0.25 0"/>
<feBlend mode="normal" in2="BackgroundImageFix" result="effect1_dropShadow_227_10538"/>
<feBlend mode="normal" in="SourceGraphic" in2="effect1_dropShadow_227_10538" result="shape"/>
</filter>
</defs>
</svg>
