<svg width="45" height="45" viewBox="0 0 45 45" fill="none" xmlns="http://www.w3.org/2000/svg">
<g filter="url(#filter0_d_227_10541)">
<circle cx="22.5" cy="18.5" r="18" fill="#14EC6A" stroke="white"/>
<path d="M26.182 21.182C24.4246 22.9393 21.5754 22.9393 19.818 21.182M32 18C32 22.9706 27.9706 27 23 27C18.0294 27 14 22.9706 14 18C14 13.0294 18.0294 9 23 9C27.9706 9 32 13.0294 32 18ZM20.75 15.75C20.75 16.1642 20.5821 16.5 20.375 16.5C20.1679 16.5 20 16.1642 20 15.75C20 15.3358 20.1679 15 20.375 15C20.5821 15 20.75 15.3358 20.75 15.75ZM20.375 15.75H20.3825V15.765H20.375V15.75ZM26 15.75C26 16.1642 25.8321 16.5 25.625 16.5C25.4179 16.5 25.25 16.1642 25.25 15.75C25.25 15.3358 25.4179 15 25.625 15C25.8321 15 26 15.3358 26 15.75ZM25.625 15.75H25.6325V15.765H25.625V15.75Z" stroke="white" strokeWidth="2.5" strokeLinecap="round" strokeLinejoin="round"/>
</g>
<defs>
<filter id="filter0_d_227_10541" x="0" y="0" width="45" height="45" filterUnits="userSpaceOnUse" colorInterpolationFilters="sRGB">
<feFlood flood-opacity="0" result="BackgroundImageFix"/>
<feColorMatrix in="SourceAlpha" type="matrix" values="0 0 0 0 0 0 0 0 0 0 0 0 0 0 0 0 0 0 127 0" result="hardAlpha"/>
<feOffset dy="4"/>
<feGaussianBlur stdDeviation="2"/>
<feComposite in2="hardAlpha" operator="out"/>
<feColorMatrix type="matrix" values="0 0 0 0 0 0 0 0 0 0 0 0 0 0 0 0 0 0 0.25 0"/>
<feBlend mode="normal" in2="BackgroundImageFix" result="effect1_dropShadow_227_10541"/>
<feBlend mode="normal" in="SourceGraphic" in2="effect1_dropShadow_227_10541" result="shape"/>
</filter>
</defs>
</svg>
