<svg width="44" height="52" viewBox="0 0 44 52" fill="none" xmlns="http://www.w3.org/2000/svg">
<g filter="url(#filter0_d_227_10535)">
<path d="M38.2581 18C38.2581 33.2366 22.129 42 22.129 42C22.129 42 6 33.2366 6 18C6 9.16344 13.2212 2 22.129 2C31.0369 2 38.2581 9.16344 38.2581 18Z" fill="#0085FF"/>
<path d="M28.5806 18C28.5806 21.5346 25.6922 24.4 22.129 24.4C18.5659 24.4 15.6774 21.5346 15.6774 18C15.6774 14.4654 18.5659 11.6 22.129 11.6M38.2581 18C38.2581 33.2366 22.129 42 22.129 42C22.129 42 6 33.2366 6 18C6 9.16344 13.2212 2 22.129 2C31.0369 2 38.2581 9.16344 38.2581 18Z" stroke="white" strokeWidth="3" strokeLinecap="round" strokeLinejoin="round"/>
<circle cx="22.0974" cy="18.0974" r="8.29268" fill="white"/>
</g>
<defs>
<filter id="filter0_d_227_10535" x="0.5" y="0.5" width="43.2578" height="51" filterUnits="userSpaceOnUse" color-interpolation-filters="sRGB">
<feFlood flood-opacity="0" result="BackgroundImageFix"/>
<feColorMatrix in="SourceAlpha" type="matrix" values="0 0 0 0 0 0 0 0 0 0 0 0 0 0 0 0 0 0 127 0" result="hardAlpha"/>
<feOffset dy="4"/>
<feGaussianBlur stdDeviation="2"/>
<feComposite in2="hardAlpha" operator="out"/>
<feColorMatrix type="matrix" values="0 0 0 0 0 0 0 0 0 0 0 0 0 0 0 0 0 0 0.25 0"/>
<feBlend mode="normal" in2="BackgroundImageFix" result="effect1_dropShadow_227_10535"/>
<feBlend mode="normal" in="SourceGraphic" in2="effect1_dropShadow_227_10535" result="shape"/>
</filter>
</defs>
</svg>
