<svg width="149" height="160" viewBox="0 0 149 160" fill="none" xmlns="http://www.w3.org/2000/svg">
<path d="M140.546 95.1359C135.783 89.0666 133.513 81.4487 134.785 73.9308C135.284 71.0585 135.558 68.1112 135.608 65.0891C136.331 29.922 106.556 0.77437 69.1005 9.55001e-05C31.6447 -0.774179 0.722548 27.1496 -0.000631857 62.3167C-0.574188 90.0657 17.8295 114.043 44.0136 123.334C54.6369 127.106 63.6143 134.049 70.3473 142.891C78.0529 153.007 90.5465 159.7 104.786 160C128.75 160.5 148.526 142.641 148.999 120.137C149.199 110.796 146.032 102.129 140.546 95.1609V95.1359Z" fill="#FFDA00"/>
<path d="M40.6464 91.7399C47.1746 91.7399 52.4667 81.9106 52.4667 69.7855C52.4667 57.6604 47.1746 47.8311 40.6464 47.8311C34.1183 47.8311 28.8262 57.6604 28.8262 69.7855C28.8262 81.9106 34.1183 91.7399 40.6464 91.7399Z" fill="white"/>
<path d="M40.6472 92.9885C33.3156 92.9885 27.5801 82.7981 27.5801 69.7853C27.5801 56.7725 33.3156 46.582 40.6472 46.582C47.9787 46.582 53.7143 56.7725 53.7143 69.7853C53.7143 82.7981 47.9787 92.9885 40.6472 92.9885ZM40.6472 49.0797C34.9116 49.0797 30.0738 58.5708 30.0738 69.7853C30.0738 80.9998 34.9116 90.4909 40.6472 90.4909C46.3828 90.4909 51.2206 80.9998 51.2206 69.7853C51.2206 58.5708 46.3828 49.0797 40.6472 49.0797Z" fill="#050505"/>
<path d="M45.9832 85.97C49.5778 85.97 52.4918 78.6679 52.4918 69.6603C52.4918 60.6527 49.5778 53.3506 45.9832 53.3506C42.3886 53.3506 39.4746 60.6527 39.4746 69.6603C39.4746 78.6679 42.3886 85.97 45.9832 85.97Z" fill="black"/>
<path d="M64.287 91.7399C70.8152 91.7399 76.1073 81.9106 76.1073 69.7855C76.1073 57.6604 70.8152 47.8311 64.287 47.8311C57.7589 47.8311 52.4668 57.6604 52.4668 69.7855C52.4668 81.9106 57.7589 91.7399 64.287 91.7399Z" fill="white"/>
<path d="M64.2878 92.9885C56.9563 92.9885 51.2207 82.7981 51.2207 69.7853C51.2207 56.7725 56.9563 46.582 64.2878 46.582C71.6194 46.582 77.3549 56.7725 77.3549 69.7853C77.3549 82.7981 71.6194 92.9885 64.2878 92.9885ZM64.2878 49.0797C58.5523 49.0797 53.7144 58.5708 53.7144 69.7853C53.7144 80.9998 58.5523 90.4909 64.2878 90.4909C70.0234 90.4909 74.8612 80.9998 74.8612 69.7853C74.8612 58.5708 70.0234 49.0797 64.2878 49.0797Z" fill="#050505"/>
<path d="M69.5985 85.97C73.1931 85.97 76.1071 78.6679 76.1071 69.6603C76.1071 60.6527 73.1931 53.3506 69.5985 53.3506C66.0039 53.3506 63.0898 60.6527 63.0898 69.6603C63.0898 78.6679 66.0039 85.97 69.5985 85.97Z" fill="black"/>
<path d="M72.6415 100.281C72.2425 100.281 71.8435 100.082 71.5941 99.7069C71.2201 99.1324 71.3947 98.3581 71.9682 97.9835C74.437 96.36 77.8534 93.8873 79.9731 91.1649C81.4693 89.2417 82.0678 87.5433 81.569 86.4943C81.2698 85.8699 81.5441 85.1206 82.1675 84.8208C82.791 84.5211 83.5391 84.7959 83.8383 85.4203C84.4867 86.819 84.7111 89.2167 81.9431 92.7134C79.599 95.6856 75.9582 98.3581 73.3398 100.082C73.1403 100.206 72.8909 100.281 72.6664 100.281H72.6415Z" fill="#050505"/>
<path d="M84.4626 106.875C83.6895 106.875 82.8915 106.775 82.1434 106.55C78.4278 105.526 75.4602 102.005 74.5625 97.5839L77.0063 97.0843C77.7295 100.606 79.9988 103.378 82.8167 104.153C84.5623 104.627 86.4825 104.328 88.1284 103.328C89.6745 102.379 90.7218 100.981 91.0211 99.4571C91.3702 97.7337 90.7966 95.5857 89.4999 93.6875C88.5274 92.2638 86.283 89.7662 82.2681 89.0918L82.692 86.6191C86.3329 87.2436 89.475 89.2417 91.5448 92.2638C93.2405 94.7365 93.9387 97.5589 93.44 99.9566C92.9911 102.155 91.5198 104.153 89.4002 105.451C87.879 106.401 86.1583 106.875 84.4376 106.875H84.4626Z" fill="#050505"/>
<path d="M85.8102 99.6815C85.5109 99.6815 85.2366 99.5816 84.9872 99.3818L79.3265 94.4364C78.8028 93.9869 78.7529 93.1876 79.2018 92.6631C79.6507 92.1386 80.4486 92.0886 80.9723 92.5382L86.6331 97.4836C87.1568 97.9331 87.2066 98.7324 86.7578 99.2569C86.5084 99.5317 86.1593 99.6815 85.8102 99.6815Z" fill="#050505"/>
</svg>
